<svg width="155" height="56" viewBox="0 0 155 56" fill="none" xmlns="http://www.w3.org/2000/svg">
<g clip-path="url(#clip0_3_269)">
<path d="M38.6207 55.934C50.2195 52.0371 58.5748 41.077 58.5748 28.1652C58.5748 15.2536 50.2195 4.29335 38.6207 0.396484V12.1358C44.3772 15.315 48.2759 21.4457 48.2759 28.4871C48.2759 35.5284 44.3772 41.6592 38.6207 44.8384V55.934Z" fill="#0A0A0A"/>
<path d="M19.954 55.934V44.466C14.5525 41.1951 10.9425 35.2627 10.9425 28.4871C10.9425 21.7115 14.5525 15.7791 19.954 12.5082V0.396484C8.35526 4.29336 0 15.2536 0 28.1652C0 41.0769 8.35526 52.0371 19.954 55.934Z" fill="#0A0A0A"/>
<path d="M37.977 28.4871C37.977 33.1086 34.2306 36.855 29.6091 36.855C24.9877 36.855 21.2413 33.1086 21.2413 28.4871C21.2413 23.8657 24.9877 20.1193 29.6091 20.1193C34.2306 20.1193 37.977 23.8657 37.977 28.4871Z" fill="#0A0A0A"/>
<path d="M69.1567 7.72414C69.1567 2.78069 71.6903 0 75.9334 0C80.2589 0 82.6894 2.88368 82.6894 7.72414C82.6894 12.6264 80.1765 15.4071 75.9334 15.4071C71.5873 15.4071 69.1567 12.5234 69.1567 7.72414ZM71.5873 8.75402C71.5873 11.6995 73.3175 13.3679 75.9334 13.3679C78.7141 13.3679 80.2795 11.5141 80.2795 8.75402V6.63246C80.2795 3.70759 78.5287 2.03917 75.9334 2.03917C73.1321 2.03917 71.5873 3.87237 71.5873 6.63246V8.75402Z" fill="#0A0A0A"/>
<path d="M85.389 4.36671H87.3252L87.5106 6.2823H87.9225C88.4993 4.96405 89.9205 4.16074 91.4242 4.16074C94.2254 4.16074 95.8939 6.07632 95.8939 9.72211C95.8939 13.2031 94.3284 15.2835 91.4448 15.2835C89.8175 15.2835 88.5199 14.4802 87.9225 13.1825H87.5106L87.5724 15.5307V18.6409H85.389V4.36671ZM87.5724 9.10418V10.3194C87.5724 12.235 88.8495 13.4915 90.7856 13.4915C92.5364 13.4915 93.6693 12.4616 93.6693 10.7314V8.69223C93.6693 7.06501 92.6394 5.95274 90.7856 5.95274C88.8495 5.95274 87.5724 7.2092 87.5724 9.10418Z" fill="#0A0A0A"/>
<path d="M97.8596 9.76331C97.8596 6.22051 99.94 4.16074 103.009 4.16074C105.893 4.16074 107.891 5.95274 107.891 9.04239C107.891 9.43375 107.87 9.9075 107.808 10.2577H100.084V10.8756C100.084 12.5646 101.279 13.7181 103.05 13.7181C104.471 13.7181 105.522 12.9766 105.79 11.8849H107.911C107.52 14.0064 105.563 15.4071 103.05 15.4071C99.8782 15.4071 97.8596 13.2031 97.8596 9.76331ZM100.084 8.77462H105.728V8.38327C105.728 6.87963 104.616 5.87035 102.988 5.87035C101.279 5.87035 100.084 6.92083 100.084 8.46566V8.77462Z" fill="#0A0A0A"/>
<path d="M110.633 15.2011V4.36671H112.549L112.837 6.36469H113.249C113.867 5.02584 115.268 4.16074 116.957 4.16074C119.12 4.16074 120.5 5.4172 120.5 7.80653V15.2011H118.316V8.52745C118.316 6.85904 117.534 5.95274 115.927 5.95274C113.991 5.95274 112.817 7.43577 112.817 9.49554V15.2011H110.633Z" fill="#0A0A0A"/>
<path d="M69.1567 27.6782C69.1567 22.9819 71.4843 19.9334 76.0982 19.9334C79.641 19.9334 82.2363 22.055 82.5246 25.2682H80.1559C79.8263 23.1879 78.1991 21.9932 75.9952 21.9932C73.1321 21.9932 71.5873 23.7646 71.5873 26.5659V28.8316C71.5873 31.5711 73.2351 33.3219 75.9746 33.3219C78.1579 33.3219 79.744 32.0449 80.1559 30.0469H82.5246C82.0921 33.4043 79.4556 35.3611 75.9334 35.3611C71.4431 35.3611 69.1567 32.292 69.1567 27.6782Z" fill="#0A0A0A"/>
<path d="M94.8653 24.3207V35.1551H92.9909L92.7025 33.1572H92.2493C91.652 34.5372 90.2926 35.3611 88.6859 35.3611C86.379 35.3611 85.1843 33.8987 85.1843 31.7359V24.3207H87.3677V31.0768C87.3677 32.7452 88.274 33.5485 89.6746 33.5485C91.5902 33.5485 92.6819 32.1479 92.6819 30.0881V24.3207H94.8653Z" fill="#0A0A0A"/>
<path d="M99.5184 31.8183C99.5184 33.013 100.466 33.7339 101.949 33.7339C103.329 33.7339 104.153 33.1366 104.153 32.1273C104.153 31.0562 103.288 30.8502 102.814 30.7678L100.61 30.3559C98.5091 29.9851 97.6234 28.8728 97.6234 27.431C97.6234 25.3712 99.2918 24.1148 101.825 24.1148C104.606 24.1148 106.089 25.4124 106.068 27.4928H104.05C104.009 26.2569 103.144 25.742 101.887 25.742C100.528 25.742 99.8274 26.3187 99.8274 27.225C99.8274 28.3373 100.878 28.5227 101.455 28.6257L103.514 28.9758C105.595 29.3466 106.419 30.5 106.419 31.9419C106.419 34.0635 104.647 35.3611 101.949 35.3611C99.1682 35.3611 97.4174 34.0017 97.438 31.8183H99.5184Z" fill="#0A0A0A"/>
<path d="M111.844 33.3837H114.79V35.1551H111.515C110.155 35.1551 109.681 34.4342 109.681 33.3837V26.1127H107.601V24.3207H109.681V20.7779H111.844V24.3207H114.563V26.1127H111.844V33.3837Z" fill="#0A0A0A"/>
<path d="M116.204 29.7379C116.204 26.2157 118.264 24.1148 121.333 24.1148C124.341 24.1148 126.462 26.1333 126.462 29.7379C126.462 33.116 124.588 35.3611 121.333 35.3611C118.182 35.3611 116.204 33.1983 116.204 29.7379ZM118.429 30.6236C118.429 32.5598 119.727 33.5691 121.333 33.5691C122.981 33.5691 124.238 32.5392 124.238 30.6236V28.9346C124.238 27.0808 123.022 25.9274 121.333 25.9274C119.624 25.9274 118.429 27.1014 118.429 28.9346V30.6236Z" fill="#0A0A0A"/>
<path d="M132.842 35.3611C129.876 35.3611 128.454 33.116 128.454 29.7379C128.454 26.0509 130.143 24.1148 132.903 24.1148C134.675 24.1148 135.849 24.9387 136.426 26.2363H136.858L136.796 23.9088V19.9952H138.959V35.1551H137.044L136.858 33.2395H136.426C135.87 34.5578 134.428 35.3611 132.842 35.3611ZM133.583 33.5691C135.519 33.5691 136.796 32.3126 136.796 30.4177V29.0788C136.796 27.1632 135.519 25.9068 133.563 25.9068C131.832 25.9068 130.699 26.9366 130.699 28.6669V30.8296C130.699 32.4568 131.729 33.5691 133.583 33.5691Z" fill="#0A0A0A"/>
<path d="M140.991 24.3207H143.257L144.74 27.7812L146.202 31.5711H146.614L148.118 27.7812L149.622 24.3207H151.867L147.521 33.8369V36.7618C147.521 38.0594 146.779 38.6567 145.667 38.6567H141.012V36.9059H145.358V33.8163L140.991 24.3207Z" fill="#0A0A0A"/>
<path d="M70.3308 55.1092V40.0934H77.0045C80.3001 40.0934 81.8037 42.0296 81.8037 44.9133C81.8037 48.0029 80.0529 49.7332 77.0045 49.7332H72.6172V55.1092H70.3308ZM72.6172 47.8382H76.8191C78.4875 47.8382 79.3732 46.9319 79.3732 45.6342V44.2336C79.3732 42.9153 78.4257 42.1944 76.9839 42.1944H72.6172V47.8382Z" fill="#0A0A0A"/>
<path d="M90.5642 44.213C90.832 44.213 91.1821 44.2336 91.3469 44.2748V46.2727C91.0997 46.2315 90.832 46.2109 90.6054 46.2109C88.5456 46.2109 87.0008 47.4674 87.0008 49.8773V55.1091H84.8174V46.0668H82.8195V44.2748H86.733L87.0214 46.4581H87.4333C87.9071 45.0163 89.143 44.213 90.5642 44.213Z" fill="#0A0A0A"/>
<path d="M92.3884 49.692C92.3884 46.1698 94.4482 44.0688 97.5173 44.0688C100.525 44.0688 102.646 46.0874 102.646 49.692C102.646 53.07 100.772 55.3151 97.5173 55.3151C94.3658 55.3151 92.3884 53.1524 92.3884 49.692ZM94.613 50.5777C94.613 52.5138 95.9106 53.5231 97.5173 53.5231C99.1651 53.5231 100.422 52.4932 100.422 50.5777V48.8887C100.422 47.0349 99.2063 45.8814 97.5173 45.8814C95.8076 45.8814 94.613 47.0555 94.613 48.8887V50.5777Z" fill="#0A0A0A"/>
<path d="M107.861 53.3377H110.807V55.1091H107.532C106.172 55.1091 105.698 54.3882 105.698 53.3377V46.0668H103.618V44.2748H105.698V40.7319H107.861V44.2748H110.58V46.0668H107.861V53.3377Z" fill="#0A0A0A"/>
<path d="M112.222 49.692C112.222 46.1698 114.282 44.0688 117.351 44.0688C120.358 44.0688 122.48 46.0874 122.48 49.692C122.48 53.07 120.605 55.3151 117.351 55.3151C114.199 55.3151 112.222 53.1524 112.222 49.692ZM114.447 50.5777C114.447 52.5138 115.744 53.5231 117.351 53.5231C118.999 53.5231 120.255 52.4932 120.255 50.5777V48.8887C120.255 47.0349 119.04 45.8814 117.351 45.8814C115.641 45.8814 114.447 47.0555 114.447 48.8887V50.5777Z" fill="#0A0A0A"/>
<path d="M134.379 51.3398C134.112 53.7497 132.278 55.3151 129.621 55.3151C126.408 55.3151 124.472 53.07 124.472 49.7126C124.472 46.1904 126.593 44.0688 129.663 44.0688C132.278 44.0688 134.132 45.593 134.338 47.9206H132.237C131.949 46.5405 130.919 45.8814 129.601 45.8814C127.891 45.8814 126.696 47.1378 126.696 48.9298V50.6189C126.696 52.3491 127.85 53.5231 129.621 53.5231C131.043 53.5231 132.072 52.6786 132.278 51.3398H134.379Z" fill="#0A0A0A"/>
<path d="M136.199 49.692C136.199 46.1698 138.259 44.0688 141.328 44.0688C144.335 44.0688 146.457 46.0874 146.457 49.692C146.457 53.07 144.582 55.3151 141.328 55.3151C138.176 55.3151 136.199 53.1524 136.199 49.692ZM138.424 50.5777C138.424 52.5138 139.721 53.5231 141.328 53.5231C142.976 53.5231 144.232 52.4932 144.232 50.5777V48.8887C144.232 47.0349 143.017 45.8814 141.328 45.8814C139.618 45.8814 138.424 47.0555 138.424 48.8887V50.5777Z" fill="#0A0A0A"/>
<path d="M151.296 53.3377H154.241V55.1091H150.966C149.607 55.1091 149.133 54.3882 149.133 53.3377V39.9492H151.296V53.3377Z" fill="#0A0A0A"/>
</g>
<defs>
<clipPath id="clip0_3_269">
<rect width="154.483" height="56" fill="white"/>
</clipPath>
</defs>
</svg>
