<svg xmlns="http://www.w3.org/2000/svg" width="256" height="256" viewBox="0 0 155 56" fill="none">
    <g clip-path="url(#clip0_3_269)">
        <path d="M38.6207 55.934C50.2195 52.0371 58.5748 41.077 58.5748 28.1652C58.5748 15.2536 50.2195 4.29335 38.6207 0.396484V12.1358C44.3772 15.315 48.2759 21.4457 48.2759 28.4871C48.2759 35.5284 44.3772 41.6592 38.6207 44.8384V55.934Z" fill="#0A0A0A"/>
        <path d="M19.954 55.934V44.466C14.5525 41.1951 10.9425 35.2627 10.9425 28.4871C10.9425 21.7115 14.5525 15.7791 19.954 12.5082V0.396484C8.35526 4.29336 0 15.2536 0 28.1652C0 41.0769 8.35526 52.0371 19.954 55.934Z" fill="#0A0A0A"/>
        <path d="M37.977 28.4871C37.977 33.1086 34.2306 36.855 29.6091 36.855C24.9877 36.855 21.2413 33.1086 21.2413 28.4871C21.2413 23.8657 24.9877 20.1193 29.6091 20.1193C34.2306 20.1193 37.977 23.8657 37.977 28.4871Z" fill="#0A0A0A"/>
    </g>
    <defs>
        <clipPath id="clip0_3_269">
            <rect width="154.483" height="56" fill="white"/>
        </clipPath>
    </defs>
</svg>

